HIERARCHY
ROOT Hips
{
	OFFSET 0.00000 0.00000 0.00000
	CHANNELS 6 Xposition Yposition Zposition Zrotation Yrotation Xrotation 
	JOINT LHipJoint
	{
		OFFSET 0 0 0
		CHANNELS 3 Zrotation Yrotation Xrotation
		JOINT LeftHip
		{
			OFFSET 1.34019 -1.87553 0.90315
			CHANNELS 3 Zrotation Yrotation Xrotation
			JOINT LeftKnee
			{
				OFFSET 2.55316 -7.01474 0.00000
				CHANNELS 3 Zrotation Yrotation Xrotation
				JOINT LeftAnkle
				{
					OFFSET 2.64657 -7.27139 0.00000
					CHANNELS 3 Zrotation Yrotation Xrotation
					JOINT LeftToe
					{
						OFFSET 0.24207 -0.66507 2.14489
						CHANNELS 3 Zrotation Yrotation Xrotation
						End Site
						{
							OFFSET 0.00000 -0.00000 1.12451
						}
					}
				}
			}
		}
	}
	JOINT RHipJoint
	{
		OFFSET 0 0 0
		CHANNELS 3 Zrotation Yrotation Xrotation
		JOINT RightHip
		{
			OFFSET -1.28320 -1.87553 0.90315
			CHANNELS 3 Zrotation Yrotation Xrotation
			JOINT RightKnee
			{
				OFFSET -2.60484 -7.15674 0.00000
				CHANNELS 3 Zrotation Yrotation Xrotation
				JOINT RightAnkle
				{
					OFFSET -2.60296 -7.15159 0.00000
					CHANNELS 3 Zrotation Yrotation Xrotation
					JOINT RightToe
					{
						OFFSET -0.31082 -0.85398 2.28998
						CHANNELS 3 Zrotation Yrotation Xrotation
						End Site
						{
							OFFSET -0.00000 -0.00000 1.21611
						}
					}
				}
			}
		}
	}
	JOINT lowerback
	{
		OFFSET 0 0 0
		CHANNELS 3 Zrotation Yrotation Xrotation
		JOINT Chest
		{
			OFFSET -0.00160 2.05581 -0.15156
			CHANNELS 3 Zrotation Yrotation Xrotation
			JOINT Chest2
			{
				OFFSET 0.04594 2.06326 -0.01617
				CHANNELS 3 Zrotation Yrotation Xrotation
				JOINT lowerneck
				{
					OFFSET 0 0 0
					CHANNELS 3 Zrotation Yrotation Xrotation
					JOINT Neck
					{
						OFFSET 0.03753 1.73883 0.26751
						CHANNELS 3 Zrotation Yrotation Xrotation
						JOINT Head
						{
							OFFSET -0.09795 1.76129 -0.31794
							CHANNELS 3 Zrotation Yrotation Xrotation
							End Site
							{
								OFFSET -0.03611 1.79987 -0.13846
							}
						}
					}
				}
				JOINT LeftCollar
				{
					OFFSET 0 0 0
					CHANNELS 3 Zrotation Yrotation Xrotation
					JOINT LeftShoulder
					{
						OFFSET 3.30667 1.29205 -0.22445
CHANNELS 3 Zrotation Xrotation Yrotation
						JOINT LeftElbow
						{
OFFSET 0 -4.927850 -0.000000
CHANNELS 3 Zrotation Xrotation Yrotation
							JOINT LeftWrist
							{
OFFSET 0 -3.440520 0.000000
CHANNELS 3 Zrotation Xrotation Yrotation
								JOINT lhand
								{
									OFFSET 0 0 0
CHANNELS 3 Zrotation Xrotation Yrotation
									JOINT LFingers
									{
OFFSET 0 -0.654330 0.000000
CHANNELS 3 Zrotation Xrotation Yrotation
										End Site
										{
OFFSET 0 -0.527530 0.000000
										}
									}
								}
								JOINT LThumb
								{
OFFSET 0 0.000000 0.000000
CHANNELS 3 Zrotation Xrotation Yrotation
									End Site
									{
OFFSET 0 -0.535590 0.535590
									}
								}
							}
						}
					}
				}
				JOINT RightCollar
				{
					OFFSET 0 0 0
					CHANNELS 3 Zrotation Yrotation Xrotation
					JOINT RightShoulder
					{
						OFFSET -3.20032 1.49783 -0.27688
CHANNELS 3 Zrotation Xrotation Yrotation
						JOINT RightElbow
						{
OFFSET 0 -5.091810 -0.000000
CHANNELS 3 Zrotation Xrotation Yrotation
							JOINT RightWrist
							{
OFFSET 0 -3.498650 -0.000000
CHANNELS 3 Zrotation Xrotation Yrotation
								JOINT rhand
								{
									OFFSET 0 0 0
CHANNELS 3 Zrotation Xrotation Yrotation
									JOINT RFingers
									{
OFFSET 0 -0.666410 0.000000
CHANNELS 3 Zrotation Xrotation Yrotation
										End Site
										{
OFFSET 0 -0.537280 0.000000
										}
									}
								}
								JOINT RThumb
								{
OFFSET 0 0.000000 0.000000
CHANNELS 3 Zrotation Xrotation Yrotation
									End Site
									{
OFFSET 0 -0.545480 0.545480
									}
								}
							}
						}
					}
				}
			}
		}
	}
}
MOTION
Frames: 6
Frame Time: 0.008333333333333333
0.117000 17.826100 -29.732200 -2.238700 4.343000 2.066200 0.000000 0.000000 0.000000 -17.134600 -3.509000 -8.278300 2.409200 9.671000 27.917700 0.473000 8.110400 -18.405500 0.166900 -2.631600 -7.254700 0.000000 0.000000 0.000000 19.233100 1.422200 -10.224600 -2.856100 -10.458400 30.474500 0.307700 -17.698400 -22.149300 -0.016400 0.825600 -2.269100 -3.691000 0.451300 1.265800 3.539400 0.607800 -3.017900 5.732900 0.479000 -3.914800 7.281500 0.634600 -21.248200 -9.097200 0.873700 22.378200 -4.405900 -0.113300 10.790900 0.000000 -0.000000 0.000000 0.581400 6.734900 -27.081200 13.586000 -22.139800 2.670100 10.132500 -1.257400 -4.199000 0.000000 0.000000 0.000000 -7.125000 0.000000 0.000000 -13.498400 34.000800 -3.730100 0.000000 -0.000000 0.000000 -6.220800 6.465000 15.497400 -13.038500 -21.343600 -2.467300 -15.823500 1.403800 5.481500 0.000000 0.000000 0.000000 7.125000 0.000000 -0.000000 9.063200 35.553900 2.125400
0.144840 17.817473 -29.690147 -2.407226 3.070444 1.760539 0.000000 0.000000 0.000000 -17.332167 -3.764173 -7.375657 2.395927 9.646201 27.838511 0.395374 9.684149 -19.081923 0.151953 -2.511748 -6.922177 0.000000 0.000000 0.000000 19.212763 1.734771 -9.749797 -2.834934 -10.422955 30.357538 0.248240 -17.042527 -21.723187 -0.020700 0.928366 -2.551751 -1.512796 0.047239 1.002930 2.624941 0.103213 -2.897152 3.555274 0.135794 -3.554066 10.420806 2.829070 -22.183788 -10.466905 3.235895 23.038581 -5.140779 1.055032 11.536736 0.000000 0.000000 0.000000 2.527699 6.551766 -25.351896 13.817225 -22.472759 2.757865 10.298287 -1.962942 -3.656423 0.000000 0.000000 0.000000 -7.125000 0.000000 0.000000 -13.274914 33.471588 -3.840188 0.000000 0.000000 0.000000 -5.480595 5.637006 17.339747 -12.886704 -21.120940 -2.412277 -16.065751 1.664008 5.323839 0.000000 0.000000 0.000000 7.125000 0.000000 0.000000 8.841665 35.404159 2.105067
0.142116 17.811538 -29.705045 -2.266484 3.277985 1.503178 0.000000 0.000000 0.000000 -17.457301 -3.682415 -7.194880 2.399555 9.652996 27.860101 0.409156 9.465765 -19.010266 0.154238 -2.530414 -6.973952 0.000000 0.000000 0.000000 19.081449 1.546392 -9.603206 -2.862116 -10.468492 30.507443 0.246799 -17.101367 -21.831913 -0.021314 0.942335 -2.590038 0.324221 -0.131552 2.113260 1.074344 -0.112727 -3.630043 0.936016 -0.045321 -4.930710 11.603414 3.074631 -21.763380 -9.497790 2.998714 24.123785 -5.047838 1.203010 11.844742 0.000000 0.000000 0.000000 5.600421 7.428285 -25.652093 14.002890 -22.738799 2.829244 10.214561 -2.681573 -4.341135 0.000000 0.000000 0.000000 -7.125000 0.000000 0.000000 -13.456731 34.144714 -3.669659 0.000000 0.000000 0.000000 -3.156574 6.337066 17.129285 -12.754821 -20.926976 -2.365043 -16.149446 2.474246 5.105049 0.000000 0.000000 0.000000 7.125000 0.000000 0.000000 8.743513 35.183419 2.128698
0.159362 17.802521 -29.702282 -2.250293 3.035578 1.186153 0.000000 0.000000 0.000000 -17.601069 -3.554012 -6.834109 2.408822 9.670123 27.915050 0.403862 9.669914 -19.161471 0.149419 -2.491193 -6.865302 0.000000 0.000000 0.000000 18.984667 1.553279 -9.264049 -2.870537 -10.482455 30.553503 0.224105 -16.951365 -21.834802 -0.020960 0.934849 -2.569605 -0.450792 0.089895 2.132597 1.830187 0.181563 -3.624135 2.135399 0.146180 -4.946868 11.361577 3.154168 -21.774505 -10.236667 3.433416 24.391693 -5.236643 1.285080 12.016110 0.000000 0.000000 0.000000 4.461953 7.444118 -25.482624 13.868279 -22.546108 2.777427 9.967593 -2.391951 -4.276912 0.000000 0.000000 0.000000 -7.125000 0.000000 0.000000 -13.644187 34.070491 -3.748638 0.000000 0.000000 0.000000 -4.626360 6.485380 17.644554 -12.764706 -20.941411 -2.368534 -16.024606 1.983594 5.229309 0.000000 0.000000 0.000000 7.125000 0.000000 0.000000 8.862834 35.305028 2.131838
0.173864 17.805568 -29.703959 -2.312071 3.486112 1.295577 0.000000 0.000000 0.000000 -17.557418 -3.790794 -6.990853 2.416168 9.683837 27.958738 0.416004 9.484508 -19.104795 0.147600 -2.475541 -6.821810 0.000000 0.000000 0.000000 19.024459 1.383466 -9.322515 -2.844971 -10.439766 30.412748 0.247814 -17.149907 -21.898414 -0.020514 0.923787 -2.539080 -0.251333 0.164226 2.129749 1.682768 0.284254 -3.648885 1.863876 0.186934 -4.973256 11.005082 2.767199 -22.023095 -9.750041 2.846572 24.598344 -5.092130 1.047162 12.051648 0.000000 0.000000 0.000000 4.614000 7.417585 -25.772634 13.775121 -22.412316 2.741808 10.104690 -2.603217 -4.085248 0.000000 0.000000 0.000000 -7.125000 0.000000 0.000000 -13.501406 33.887289 -3.769104 0.000000 0.000000 0.000000 -4.289148 6.356462 16.841041 -12.743585 -20.910318 -2.361011 -15.891280 2.223352 4.899863 0.000000 0.000000 0.000000 7.125000 0.000000 0.000000 8.928190 34.960532 2.223552
0.194309 17.807601 -29.690966 -2.312086 3.748240 1.371684 0.000000 0.000000 0.000000 -17.615483 -3.886296 -7.024835 2.415170 9.682040 27.953053 0.426564 9.333313 -19.068624 0.147738 -2.476574 -6.824646 0.000000 0.000000 0.000000 18.935164 1.091282 -9.277476 -2.806454 -10.374979 30.199729 0.215585 -17.010147 -22.015597 -0.018567 0.879141 -2.416254 -0.353359 0.181005 1.818689 1.698791 0.300616 -3.617843 1.936500 0.197994 -4.764664 10.956204 2.742176 -21.666663 -9.682413 2.843332 24.498848 -5.049289 1.056037 11.939963 0.000000 0.000000 0.000000 4.189336 7.731359 -25.716171 13.703508 -22.309274 2.714528 10.301658 -2.523829 -3.666259 0.000000 0.000000 0.000000 -7.125000 0.000000 0.000000 -13.273892 33.481533 -3.836610 0.000000 0.000000 0.000000 -4.100513 6.560921 16.916787 -12.736621 -20.900098 -2.358541 -15.757682 2.164729 4.935645 0.000000 0.000000 0.000000 7.125000 0.000000 0.000000 9.042637 34.991134 2.245830
